<svg id="Layer_1" data-name="Layer 1" xmlns="http://www.w3.org/2000/svg" xmlns:xlink="http://www.w3.org/1999/xlink" viewBox="0 0 494.84 638.6"><defs><style>.cls-1{fill:none;}.cls-2{fill:#63adf2;}.cls-3{clip-path:url(#clip-path);}.cls-4{opacity:0.3;isolation:isolate;fill:url(#linear-gradient);}</style><clipPath id="clip-path" transform="translate(0)"><path class="cls-1" d="M319.3,0c176.34,0-67.07,208.92,88.59,319.3s87.76,319.3-88.59,319.3S0,495.64,0,319.3,143,0,319.3,0Z"/></clipPath><linearGradient id="linear-gradient" x1="-712.94" y1="860.34" x2="-712.94" y2="859.34" gradientTransform="matrix(-494.84, 0, 0, 638.6, -352540.59, -548777.38)" gradientUnits="userSpaceOnUse"><stop offset="0" stop-color="#dddff9"/><stop offset="1" stop-color="#63adf2"/></linearGradient></defs><path class="cls-2" d="M319.3,0c176.34,0-67.07,208.92,88.59,319.3s87.76,319.3-88.59,319.3S0,495.64,0,319.3,143,0,319.3,0Z" transform="translate(0)"/><g class="cls-3"><path class="cls-4" d="M175.54,638.6c-176.35,0,67.06-208.92-88.6-319.3S-.81,0,175.54,0s319.3,143,319.3,319.3S351.88,638.6,175.54,638.6Z" transform="translate(0)"/></g></svg>