<?xml version="1.0" encoding="utf-8"?>
<!-- Generator: Adobe Illustrator 25.0.0, SVG Export Plug-In . SVG Version: 6.00 Build 0)  -->
<svg version="1.1" id="Layer_1" xmlns="http://www.w3.org/2000/svg" xmlns:xlink="http://www.w3.org/1999/xlink" x="0px" y="0px"
	 viewBox="0 0 370 160" style="enable-background:new 0 0 370 160;" xml:space="preserve">
<style type="text/css">
	.st0{fill:#63ADF2;}
	.st1{fill:#FFFFFF;}
</style>
<g>
	<circle class="st0" cx="5" cy="5" r="5"/>
	<circle class="st0" cx="35" cy="5" r="5"/>
	<circle class="st0" cx="65" cy="5" r="5"/>
	<circle class="st0" cx="95" cy="5" r="5"/>
	<circle class="st0" cx="125" cy="5" r="5"/>
	<circle class="st0" cx="155" cy="5" r="5"/>
	<circle class="st0" cx="185" cy="5" r="5"/>
	<circle class="st0" cx="215" cy="5" r="5"/>
	<circle class="st0" cx="245" cy="5" r="5"/>
	<circle class="st0" cx="275" cy="5" r="5"/>
	<circle class="st0" cx="305" cy="5" r="5"/>
	<circle class="st0" cx="335" cy="5" r="5"/>
	<circle class="st0" cx="365" cy="5" r="5"/>
	<circle class="st0" cx="5" cy="35" r="5"/>
	<circle class="st0" cx="35" cy="35" r="5"/>
	<circle class="st0" cx="65" cy="35" r="5"/>
	<circle class="st0" cx="95" cy="35" r="5"/>
	<circle class="st0" cx="125" cy="35" r="5"/>
	<circle class="st0" cx="155" cy="35" r="5"/>
	<circle class="st0" cx="185" cy="35" r="5"/>
	<circle class="st0" cx="215" cy="35" r="5"/>
	<circle class="st0" cx="245" cy="35" r="5"/>
	<circle class="st0" cx="275" cy="35" r="5"/>
	<circle class="st0" cx="305" cy="35" r="5"/>
	<circle class="st0" cx="335" cy="35" r="5"/>
	<circle class="st0" cx="365" cy="35" r="5"/>
</g>
<circle class="st0" cx="5" cy="65" r="5"/>
<circle class="st0" cx="35" cy="65" r="5"/>
<circle class="st0" cx="65" cy="65" r="5"/>
<circle class="st0" cx="95" cy="65" r="5"/>
<circle class="st0" cx="125" cy="65" r="5"/>
<circle class="st0" cx="155" cy="65" r="5"/>
<circle class="st1" cx="185" cy="65" r="5"/>
<circle class="st1" cx="215" cy="65" r="5"/>
<circle class="st1" cx="245" cy="65" r="5"/>
<circle class="st1" cx="275" cy="65" r="5"/>
<circle class="st1" cx="305" cy="65" r="5"/>
<circle class="st1" cx="335" cy="65" r="5"/>
<circle class="st1" cx="365" cy="65" r="5"/>
<circle class="st0" cx="5" cy="95" r="5"/>
<circle class="st0" cx="35" cy="95" r="5"/>
<circle class="st0" cx="65" cy="95" r="5"/>
<circle class="st0" cx="95" cy="95" r="5"/>
<circle class="st0" cx="125" cy="95" r="5"/>
<circle class="st0" cx="155" cy="95" r="5"/>
<circle class="st1" cx="185" cy="95" r="5"/>
<circle class="st1" cx="215" cy="95" r="5"/>
<circle class="st1" cx="245" cy="95" r="5"/>
<circle class="st1" cx="275" cy="95" r="5"/>
<circle class="st1" cx="305" cy="95" r="5"/>
<circle class="st1" cx="335" cy="95" r="5"/>
<circle class="st1" cx="365" cy="95" r="5"/>
<circle class="st0" cx="5" cy="125" r="5"/>
<circle class="st0" cx="35" cy="125" r="5"/>
<circle class="st0" cx="65" cy="125" r="5"/>
<circle class="st0" cx="95" cy="125" r="5"/>
<circle class="st0" cx="125" cy="125" r="5"/>
<circle class="st0" cx="155" cy="125" r="5"/>
<circle class="st0" cx="185" cy="125" r="5"/>
<circle class="st1" cx="215" cy="125" r="5"/>
<circle class="st1" cx="245" cy="125" r="5"/>
<circle class="st1" cx="275" cy="125" r="5"/>
<circle class="st1" cx="305" cy="125" r="5"/>
<circle class="st1" cx="335" cy="125" r="5"/>
<circle class="st1" cx="365" cy="125" r="5"/>
<circle class="st0" cx="5" cy="155" r="5"/>
<circle class="st0" cx="35" cy="155" r="5"/>
<circle class="st0" cx="65" cy="155" r="5"/>
<circle class="st0" cx="95" cy="155" r="5"/>
<circle class="st0" cx="125" cy="155" r="5"/>
<circle class="st0" cx="155" cy="155" r="5"/>
<circle class="st0" cx="185" cy="155" r="5"/>
<circle class="st0" cx="215" cy="155" r="5"/>
<circle class="st1" cx="245" cy="155" r="5"/>
<circle class="st1" cx="275" cy="155" r="5"/>
<circle class="st1" cx="305" cy="155" r="5"/>
<circle class="st1" cx="335" cy="155" r="5"/>
<circle class="st1" cx="365" cy="155" r="5"/>
</svg>
